<?xml version="1.0" encoding="UTF-8" standalone="no"?>
<!-- Created with Inkscape (http://www.inkscape.org/) -->

<svg
   xmlns:dc="http://purl.org/dc/elements/1.1/"
   xmlns:cc="http://creativecommons.org/ns#"
   xmlns:rdf="http://www.w3.org/1999/02/22-rdf-syntax-ns#"
   xmlns:svg="http://www.w3.org/2000/svg"
   xmlns="http://www.w3.org/2000/svg"
   xmlns:xlink="http://www.w3.org/1999/xlink"
   xmlns:sodipodi="http://sodipodi.sourceforge.net/DTD/sodipodi-0.dtd"
   xmlns:inkscape="http://www.inkscape.org/namespaces/inkscape"
   height="60"
   width="120"
   version="1.1"
   id="svg2"
   inkscape:version="0.48.4 r9939"
   sodipodi:docname="islenauts_opt.svg">
  <sodipodi:namedview
     pagecolor="#ffffff"
     bordercolor="#666666"
     borderopacity="1"
     objecttolerance="10"
     gridtolerance="10"
     guidetolerance="10"
     inkscape:pageopacity="0"
     inkscape:pageshadow="2"
     inkscape:window-width="1366"
     inkscape:window-height="711"
     id="namedview42"
     showgrid="false"
     inkscape:zoom="3.9333333"
     inkscape:cx="60"
     inkscape:cy="40.169492"
     inkscape:window-x="0"
     inkscape:window-y="30"
     inkscape:window-maximized="1"
     inkscape:current-layer="g18" />
  <defs
     id="defs4">
    <linearGradient
       id="linearGradient3835"
       y2="1022.4"
       gradientUnits="userSpaceOnUse"
       x2="103.07"
       gradientTransform="translate(-5.742187,4.7097812e-5)"
       y1="1022.4"
       x1="16.932">
      <stop
         stop-color="#74e3da"
         offset="0"
         id="stop7" />
      <stop
         stop-color="#a4fa87"
         offset="1"
         id="stop9" />
    </linearGradient>
    <linearGradient
       id="linearGradient3870"
       y2="43.564"
       gradientUnits="userSpaceOnUse"
       x2="13.673"
       y1="39.2"
       x1="105.16"
       xlink:href="#linearGradient3835">
      <stop
         stop-color="#a4fa87"
         offset="0"
         id="stop12" />
      <stop
         stop-color="#74e3da"
         offset="1"
         id="stop14" />
    </linearGradient>
  </defs>
  <metadata
     id="metadata16">
    <rdf:RDF>
      <cc:Work
         rdf:about="">
        <dc:format>image/svg+xml</dc:format>
        <dc:type
           rdf:resource="http://purl.org/dc/dcmitype/StillImage" />
        <dc:title />
      </cc:Work>
    </rdf:RDF>
  </metadata>
  <g
     transform="translate(0,-992.36218)"
     id="g18">
    <g
       style="letter-spacing:0px;word-spacing:0px;"
       font-weight="normal"
       font-size="40px"
       font-style="normal"
       font-stretch="normal"
       line-height="125%"
       font-variant="normal"
       font-family="Jenna Sue"
       fill="url(#linearGradient3835)"
       id="g1">
      <path
         style=""
         d="m19.892,1033.7c-0.18667,0.1867-0.34667,0.2934-0.48,0.32-0.13334,0.027-0.26667,0-0.4-0.08-0.13334-0.053-0.28-0.1333-0.44-0.24-0.13333-0.1333-0.28-0.24-0.44-0.32-0.02667-0.3733-0.08-1.2-0.16-2.48-0.08-1.3066-0.16-2.8533-0.24-4.64-0.08-1.7866-0.17333-3.6933-0.28-5.72-0.08-2.0533-0.16-4.0266-0.24-5.92-0.05333-1.8933-0.10667-3.5999-0.16-5.12-0.05333-1.5466-0.06667-2.6799-0.04-3.4-0.05333,0.027-0.04,0.013,0.04-0.04,0.10667-0.053,0.24-0.1199,0.4-0.2,0.16-0.08,0.34667-0.1599,0.56-0.24,0.21333-0.1066,0.42667-0.1866,0.64-0.24-0.02667,1.2267-0.05333,2.8934-0.08,5-0.000001,2.1067,0.02667,4.4534,0.08,7.04,0.08,2.5601,0.21333,5.2534,0.4,8.08,0.18666,2.8267,0.46666,5.5601,0.84,8.2"
         id="path22" />
      <path
         style=""
         d="m28.13,1021.1c0.66666,0.1067,1.2133,0.2534,1.64,0.44,0.45333,0.1867,0.79999,0.4001,1.04,0.64,0.26666,0.2134,0.46666,0.4401,0.6,0.68,0.15999,0.2401,0.30666,0.4667,0.44,0.68-0.02667,0.1067-0.16001,0.093-0.4-0.04-0.21334-0.1333-0.42667-0.2666-0.64-0.4-0.58667-0.3733-1.2933-0.5999-2.12-0.68-0.82667-0.08-1.6-0.027-2.32,0.16-0.69334,0.1601-1.2533,0.4534-1.68,0.88-0.42667,0.4267-0.53333,0.9467-0.32,1.56,0.21333,0.6134,0.58667,1.1467,1.12,1.6,0.56,0.4534,1.1733,0.8667,1.84,1.24,0.66666,0.3467,1.3333,0.6667,2,0.96,0.66666,0.2934,1.2133,0.5867,1.64,0.88,0.53333-0.2933,0.98666-0.5333,1.36-0.72,0.37332-0.2133,0.70666-0.3999,1-0.56,0.29332-0.1866,0.58666-0.3466,0.88-0.48,0.31999-0.1599,0.67999-0.3333,1.08-0.52,0.05332-0.027,0.09332-0.04,0.12-0.04,0.05332,0.0001,0.05332,0.04,0,0.12-0.02668,0.053-0.13334,0.1601-0.32,0.32-0.16001,0.1334-0.42668,0.3334-0.8,0.6-0.18668,0.1334-0.53334,0.3601-1.04,0.68-0.50668,0.3201-1.0533,0.6667-1.64,1.04,0.31999,0.2934,0.57332,0.6001,0.76,0.92,0.15999,0.2934,0.26666,0.6134,0.32,0.96,0.07999,0.32,0.02666,0.6534-0.16,1-0.53334,0.8534-1.1333,1.52-1.8,2-0.66667,0.48-1.28,0.8134-1.84,1-0.37334,0.1334-0.78667,0.1467-1.24,0.04-0.45334-0.1066-0.81334-0.32-1.08-0.64-0.29334-0.4266-0.37334-0.8666-0.24-1.32,0.16-0.4266,0.41333-0.84,0.76-1.24,0.34666-0.4266,0.74666-0.8266,1.2-1.2,0.45333-0.3733,0.85333-0.7066,1.2-1-0.24-0.2666-0.70667-0.5866-1.4-0.96-0.69334-0.3999-1.4133-0.8266-2.16-1.28-0.72-0.4799-1.3733-0.9866-1.96-1.52-0.58667-0.5333-0.90667-1.0666-0.96-1.6-0.10666-0.5866-0.02667-1.1466,0.24-1.68,0.24-0.5599,0.6-1.0399,1.08-1.44,0.50667-0.4266,1.08-0.7333,1.72-0.92,0.66666-0.2133,1.36-0.2666,2.08-0.16m-0.36,13.72c0.29333,0.1334,0.62666,0.1334,1,0,0.37333-0.1333,0.72-0.3333,1.04-0.6,0.34666-0.24,0.63999-0.5066,0.88-0.8,0.26666-0.32,0.43999-0.6,0.52-0.84,0.07999-0.2133-0.000007-0.44-0.24-0.68-0.21334-0.2666-0.44001-0.4799-0.68-0.64-0.29334,0.2134-0.62667,0.4934-1,0.84-0.37334,0.32-0.70667,0.6534-1,1-0.26667,0.3467-0.46667,0.68-0.6,1-0.13334,0.32-0.10667,0.56,0.08,0.72"
         id="path24" />
      <path
         style=""
         d="m36.395,1025.4c-0.000002,0.08,0.04,0.4534,0.12,1.12,0.08,0.6667,0.17333,1.4801,0.28,2.44,0.10666,0.9601,0.22666,2.0001,0.36,3.12,0.16,1.0934,0.29333,2.1334,0.4,3.12,0.13333,1.0134,0.25333,1.8934,0.36,2.64,0.10666,0.7734,0.17333,1.2667,0.2,1.48-0.16-0.027-0.29334-0.053-0.4-0.08-0.10667-0.027-0.21334-0.093-0.32-0.2-0.10667-0.1066-0.24-0.2666-0.4-0.48-0.13334-0.1866-0.33334-0.4666-0.6-0.84-0.34667-2.4533-0.62667-4.5866-0.84-6.4-0.18667-1.8399-0.34667-3.3333-0.48-4.48-0.48,0.6401-0.82667,1.0667-1.04,1.28-0.21333,0.2134-0.34667,0.3201-0.4,0.32-0.08,0.0001-0.09333-0.1199-0.04-0.36,0.02667-0.1333,0.05333-0.2666,0.08-0.4,0.02667-0.1333,0.05333-0.2533,0.08-0.36,0.02667-0.1066,0.06667-0.1999,0.12-0.28,0.18667-0.2666,0.34667-0.5333,0.48-0.8,0.16-0.2666,0.28-0.5066,0.36-0.72,0.10667-0.2666,0.18667-0.5199,0.24-0.76-0.02667-0.2933-0.05333-0.5466-0.08-0.76v-0.64c0-0.2399-0.01333-0.4799-0.04-0.72v-0.92-1.56-2.36c0-0.8799,0.01333-1.7999,0.04-2.76,0.02667-0.9599,0.05333-1.8666,0.08-2.72,0.05333-0.8799,0.10667-1.6666,0.16-2.36,0.08-0.7199,0.16-1.2666,0.24-1.64,0.18667-0.7733,0.46667-1.3599,0.84-1.76,0.4-0.4266,0.81333-0.6666,1.24-0.72,0.42666-0.08,0.84,0.027,1.24,0.32,0.42666,0.2667,0.74666,0.6934,0.96,1.28,0.24,0.5867,0.36,1.3467,0.36,2.28-0.000005,0.9334-0.08,1.9601-0.24,3.08-0.16,1.0934-0.38667,2.2401-0.68,3.44-0.26667,1.2001-0.56,2.3734-0.88,3.52-0.32,1.1201-0.64,2.1734-0.96,3.16-0.32,0.9867-0.6,1.8134-0.84,2.48m-0.32-2.28c0.66666-1.9466,1.2133-3.8533,1.64-5.72,0.42666-1.8933,0.73333-3.5866,0.92-5.08,0.21333-1.4933,0.28-2.6933,0.2-3.6-0.05334-0.9333-0.24-1.4133-0.56-1.44-0.50667-0.1866-0.90667-0.013-1.2,0.52-0.29334,0.5334-0.53334,1.2801-0.72,2.24-0.16,0.9601-0.26667,2.0667-0.32,3.32-0.05333,1.2267-0.08,2.4534-0.08,3.68,0.02667,1.2267,0.05333,2.3867,0.08,3.48,0.02667,1.0934,0.04,1.9601,0.04,2.6"
         id="path26" />
      <path
         style=""
         d="m42.565,1022.4c0.08-0.027,0.30666-0.093,0.68-0.2,0.37333-0.1333,0.68-0.1599,0.92-0.08,0.77333-0.027,1.36,0.1734,1.76,0.6,0.42666,0.4267,0.46666,1.2534,0.12,2.48-0.50667,1.3601-1.1867,2.4934-2.04,3.4-0.82667,0.9067-1.8133,1.7734-2.96,2.6,0.26666,0.6934,0.66666,1.08,1.2,1.16,0.53333,0.08,1.0933,0,1.68-0.24,0.58666-0.2666,1.16-0.6133,1.72-1.04,0.55999-0.4266,1.0133-0.7999,1.36-1.12,0.55999-0.4799,0.99999-0.8799,1.32-1.2,0.34666-0.3466,0.70666-0.7599,1.08-1.24,0.07999-0.053,0.11999-0.04,0.12,0.04,0.02666,0.053,0.02666,0.1467,0,0.28-0.02668,0.1334-0.06668,0.3201-0.12,0.56-0.08001,0.1867-0.16001,0.3601-0.24,0.52-0.08001,0.1334-0.20001,0.2934-0.36,0.48-0.13334,0.1601-0.32001,0.3601-0.56,0.6-0.24001,0.2401-0.53334,0.5601-0.88,0.96-0.40001,0.3734-0.78667,0.7467-1.16,1.12-0.37334,0.3467-0.77334,0.6534-1.2,0.92-0.4,0.2667-0.85334,0.4534-1.36,0.56-0.48,0.1067-1.04,0.1067-1.68,0-0.53334-0.1866-0.96-0.3866-1.28-0.6-0.32-0.2133-0.57333-0.4266-0.76-0.64-0.16-0.2399-0.28-0.4533-0.36-0.64-0.08-0.1866-0.13333-0.3466-0.16-0.48-0.13333-0.5333-0.18667-1.2533-0.16-2.16,0.02667-0.9066,0.29333-2.0799,0.8-3.52,0.34667-0.7466,0.72-1.3733,1.12-1.88,0.4-0.5333,0.86666-0.9466,1.4-1.24m-1.76,7.08c0.34666-0.1866,0.74666-0.4399,1.2-0.76,0.48-0.3466,0.92-0.7333,1.32-1.16,0.42666-0.4533,0.78666-0.9466,1.08-1.48,0.32-0.5333,0.49333-1.0933,0.52-1.68,0.07999-0.3999,0.06666-0.6799-0.04-0.84-0.05334-0.08-0.10667-0.1199-0.16-0.12-0.45334-0.2133-0.90667-0.1466-1.36,0.2-0.45334,0.3467-0.86667,0.8401-1.24,1.48-0.37334,0.6401-0.69334,1.3601-0.96,2.16-0.24,0.7734-0.36,1.5067-0.36,2.2"
         id="path28" />
      <path
         style=""
         d="m50.845,1021.5c-0.000002,0.7467-0.01333,1.4934-0.04,2.24-0.000001,0.7467-0.01333,1.4667-0.04,2.16-0.000001,0.6934-0.01334,1.3467-0.04,1.96-0.000001,0.6134-0.01334,1.1601-0.04,1.64-0.000001-0.1066,0.05333-0.3599,0.16-0.76,0.13333-0.4266,0.30666-0.9066,0.52-1.44,0.21333-0.5333,0.44-1.0933,0.68-1.68,0.26666-0.6133,0.54666-1.1466,0.84-1.6,0.29333-0.4799,0.58666-0.8533,0.88-1.12,0.32-0.2666,0.61333-0.3466,0.88-0.24,0.58666,0.2667,0.99999,0.6534,1.24,1.16,0.23999,0.5067,0.41333,1.0934,0.52,1.76,0.10666,0.6401,0.21333,1.3601,0.32,2.16,0.10666,0.8001,0.34666,1.6401,0.72,2.52,0.15999,0.4001,0.38666,0.6934,0.68,0.88,0.31999,0.1867,0.61332,0.3201,0.88,0.4,0.29332,0.08,0.51999,0.1334,0.68,0.16,0.18666,0.0001,0.25332,0.04,0.2,0.12-0.66668,0.5067-1.24,0.68-1.72,0.52-0.48001-0.16-0.89334-0.5066-1.24-1.04-0.32001-0.5599-0.58667-1.2133-0.8-1.96-0.21334-0.7733-0.41334-1.5066-0.6-2.2-0.16001-0.7199-0.30667-1.3199-0.44-1.8-0.13334-0.5066-0.28-0.7599-0.44-0.76-0.24,0.027-0.50667,0.2534-0.8,0.68-0.26667,0.4267-0.54667,0.9601-0.84,1.6-0.29334,0.6401-0.57334,1.3467-0.84,2.12-0.26667,0.7467-0.52,1.4534-0.76,2.12-0.21334,0.6667-0.38667,1.24-0.52,1.72-0.13334,0.48-0.21334,0.7734-0.24,0.88-0.4,0-0.65333,0.013-0.76,0.04-0.08,0.027-0.22667-0.1066-0.44-0.4,0.13333-2.3466,0.17333-4.5599,0.12-6.64-0.02667-2.1066-0.08-3.9333-0.16-5.48,0-0.2399,0.05333-0.3599,0.16-0.36,0.13333,0.0001,0.26667,0.053,0.4,0.16,0.16,0.1067,0.32,0.2134,0.48,0.32,0.16,0.1067,0.29333,0.1601,0.4,0.16"
         id="path30" />
      <path
         style=""
         d="m68.032,1021.9c-0.02667,0.1601-0.09334,0.4934-0.2,1-0.08001,0.5067-0.17334,1.1067-0.28,1.8-0.10667,0.6667-0.20001,1.3734-0.28,2.12-0.08001,0.7467-0.13334,1.4534-0.16,2.12-0.000007,0.6667,0.03999,1.2401,0.12,1.72,0.10666,0.4534,0.26666,0.7334,0.48,0.84,0.61332,0.2934,1.24,0.2001,1.88-0.28,0.63999-0.5066,1.3867-1.2666,2.24-2.28,0.07999,0.0001,0.07999,0.1067,0,0.32-0.05335,0.2134-0.16001,0.4534-0.32,0.72-0.13334,0.2401-0.28001,0.4934-0.44,0.76-0.13334,0.2401-0.24001,0.4001-0.32,0.48-0.21334,0.2667-0.52001,0.5734-0.92,0.92-0.40001,0.32-0.82668,0.5867-1.28,0.8-0.45334,0.1867-0.89334,0.2667-1.32,0.24-0.40001-0.027-0.73334-0.2666-1-0.72-0.13334-0.32-0.21334-0.7066-0.24-1.16-0.02667-0.4799-0.02667-0.9599,0-1.44,0.02666-0.4799,0.06666-0.9199,0.12-1.32,0.05333-0.3999,0.09333-0.6933,0.12-0.88-0.56001,1.0401-1.2,2.0267-1.92,2.96-0.72,0.9334-1.4267,1.6667-2.12,2.2-0.69334,0.5334-1.3333,0.8134-1.92,0.84-0.58667,0.053-1.04-0.28-1.36-1-0.18667-0.6933-0.18667-1.4666,0-2.32,0.18667-0.8799,0.46667-1.6666,0.84-2.36,0.56-0.9599,1.1467-1.8399,1.76-2.64,0.61333-0.7999,1.2667-1.4799,1.96-2.04,0.69333-0.5599,1.4133-0.9599,2.16-1.2,0.77333-0.2666,1.5733-0.3333,2.4-0.2m-7.52,10.16c0.26667,0.053,0.69333-0.1466,1.28-0.6,0.58666-0.4533,1.2-1.0799,1.84-1.88,0.64-0.8266,1.2133-1.7733,1.72-2.84,0.53333-1.0933,0.87999-2.2399,1.04-3.44-0.10667,0.0001-0.26667,0.0001-0.48,0-0.18667,0.0001-0.41334,0.08-0.68,0.24-1.0133,0.6667-1.88,1.4534-2.6,2.36-0.72,0.8801-1.28,1.7467-1.68,2.6-0.4,0.8267-0.64,1.5734-0.72,2.24-0.08,0.6667,0.01333,1.1067,0.28,1.32"
         id="path32" />
      <path
         style=""
         d="m73.672,1031.9c0.18666,0.1334,0.49333-0.093,0.92-0.68,0.42666-0.5866,0.84-1.3333,1.24-2.24,0.4-0.9333,0.73333-1.9199,1-2.96,0.26666-1.0399,0.34666-1.9466,0.24-2.72-0.000006-0.1599,0.06666-0.2533,0.2-0.28,0.13333-0.053,0.27999-0.08,0.44-0.08,0.18666,0.0001,0.35999,0.013,0.52,0.04,0.18666,0.027,0.31999,0.053,0.4,0.08-0.05334,0.5867-0.13334,1.3334-0.24,2.24-0.08001,0.8801-0.13334,1.7601-0.16,2.64-0.02667,0.8801-0.000007,1.6801,0.08,2.4,0.10666,0.7201,0.33333,1.1867,0.68,1.4,0.29333,0.1867,0.62666,0.1734,1-0.04,0.39999-0.2133,0.77332-0.4799,1.12-0.8,0.37332-0.3199,0.70666-0.5999,1-0.84,0.29332-0.2666,0.47999-0.3599,0.56-0.28-0.10668,0.4534-0.33334,0.8934-0.68,1.32-0.34668,0.4267-0.74668,0.7867-1.2,1.08-0.42668,0.2934-0.89334,0.5067-1.4,0.64-0.48001,0.1067-0.92001,0.08-1.32-0.08-0.16001-0.027-0.29334-0.1733-0.4-0.44-0.08001-0.2933-0.16001-0.6266-0.24-1-0.05334-0.3733-0.10667-0.7733-0.16-1.2-0.02667-0.4266-0.06667-0.8133-0.12-1.16-0.21334,0.4267-0.45334,0.9067-0.72,1.44-0.26667,0.5334-0.53334,1.0401-0.8,1.52-0.26667,0.48-0.52,0.8934-0.76,1.24-0.24,0.3467-0.44,0.5467-0.6,0.6-0.53334,0.2134-0.94667,0.2534-1.24,0.12-0.29334-0.1066-0.49333-0.2666-0.6-0.48-0.16-0.08-0.28-0.3466-0.36-0.8-0.05333-0.48-0.10667-1.0799-0.16-1.8-0.02667-0.7199-0.04-1.5333-0.04-2.44v-2.76c0-0.9599-0.01333-1.8933-0.04-2.8-0.02667-0.9333-0.06667-1.7866-0.12-2.56,0.18667,0.0001,0.37333,0.013,0.56,0.04,0.16,0.027,0.32,0.067,0.48,0.12,0.16,0.027,0.29333,0.1067,0.4,0.24,0.13333,0.6134,0.14666,1.6934,0.04,3.24-0.08,1.5467-0.14667,3.4134-0.2,5.6-0.000001,0.08-0.000001,0.2401,0,0.48,0.02666,0.2134,0.05333,0.4534,0.08,0.72,0.05333,0.2667,0.12,0.5201,0.2,0.76,0.10666,0.2401,0.24,0.4001,0.4,0.48"
         id="path34" />
      <path
         style=""
         d="m86.497,1021.8c1.1467-0.08,2.2667-0.1599,3.36-0.24,1.12-0.1066,2.28-0.2133,3.48-0.32,0.26665,0.027,0.43999,0.1734,0.52,0.44,0.07999,0.2401-0.02668,0.3867-0.32,0.44-0.98668,0.1067-2.12,0.2534-3.4,0.44-1.28,0.1867-2.4933,0.4267-3.64,0.72,0.05333,0.8267,0.07999,1.6801,0.08,2.56-0.000006,0.8534,0.01333,1.7067,0.04,2.56,0.05333,0.8267,0.13333,1.6401,0.24,2.44,0.13333,0.7734,0.33333,1.4934,0.6,2.16,0.37333,0.4534,0.74666,0.72,1.12,0.8,0.37332,0.08,0.71999,0.053,1.04-0.08,0.34666-0.1066,0.65332-0.28,0.92-0.52,0.29332-0.2666,0.54666-0.52,0.76-0.76,0.18666-0.1866,0.33332-0.1866,0.44,0,0.13332,0.1867,0.02665,0.4667-0.32,0.84-0.16001,0.1867-0.36001,0.3867-0.6,0.6-0.24001,0.2134-0.53334,0.3867-0.88,0.52-0.32001,0.16-0.69334,0.2534-1.12,0.28-0.40001,0.053-0.84001,0.013-1.32-0.12-0.61334-0.16-1.0667-0.6533-1.36-1.48-0.29334-0.8266-0.52-1.7866-0.68-2.88-0.13334-1.1199-0.22667-2.2799-0.28-3.48-0.05334-1.1999-0.12-2.2799-0.2-3.24-1.1733,0.1067-2.04,0.2001-2.6,0.28-0.53334,0.08-0.92,0.1334-1.16,0.16-0.24,0.027-0.4,0.013-0.48-0.04s-0.22667-0.1733-0.44-0.36c0.02667-0.1333,0.02667-0.2533,0-0.36v-0.32c0.02667-0.08,0.08-0.1599,0.16-0.24,0.10667-0.08,0.29333-0.1466,0.56-0.2,0.4-0.1066,0.97333-0.1599,1.72-0.16,0.77333-0.027,1.52-0.093,2.24-0.2-0.02667-0.8533-0.05334-1.5199-0.08-2-0.02667-0.4799-0.05334-0.8933-0.08-1.24-0.02667-0.3733-0.05334-0.7333-0.08-1.08-0.000004-0.3466-0.000004-0.7999,0-1.36-0.000004-0.1333,0.06666-0.2266,0.2-0.28,0.16-0.08,0.33333-0.1199,0.52-0.12,0.18666-0.027,0.36,0.0001,0.52,0.08,0.15999,0.053,0.26666,0.1467,0.32,0.28,0.07999,0.2401,0.13333,0.6001,0.16,1.08,0.02666,0.4534,0.03999,0.9467,0.04,1.48,0.02666,0.5067,0.03999,1.0267,0.04,1.56-0.000006,0.5334-0.01334,0.9867-0.04,1.36"
         id="path36" />
      <path
         style=""
         d="m95.708,1021.1c0.66666,0.1067,1.2133,0.2534,1.64,0.44,0.45333,0.1867,0.79999,0.4001,1.04,0.64,0.26666,0.2134,0.46666,0.4401,0.6,0.68,0.15999,0.2401,0.30666,0.4667,0.44,0.68-0.02667,0.1067-0.16001,0.093-0.4-0.04-0.21334-0.1333-0.42667-0.2666-0.64-0.4-0.58667-0.3733-1.2933-0.5999-2.12-0.68-0.82667-0.08-1.6-0.027-2.32,0.16-0.69334,0.1601-1.2533,0.4534-1.68,0.88-0.42667,0.4267-0.53333,0.9467-0.32,1.56,0.21333,0.6134,0.58667,1.1467,1.12,1.6,0.56,0.4534,1.1733,0.8667,1.84,1.24,0.66666,0.3467,1.3333,0.6667,2,0.96,0.66666,0.2934,1.2133,0.5867,1.64,0.88,0.53333-0.2933,0.98666-0.5333,1.36-0.72,0.37332-0.2133,0.70665-0.3999,1-0.56,0.29332-0.1866,0.58665-0.3466,0.88-0.48,0.31999-0.1599,0.67999-0.3333,1.08-0.52,0.0533-0.027,0.0933-0.04,0.12-0.04,0.0533,0.0001,0.0533,0.04,0,0.12-0.0267,0.053-0.13335,0.1601-0.32,0.32-0.16001,0.1334-0.42668,0.3334-0.8,0.6-0.18668,0.1334-0.53335,0.3601-1.04,0.68-0.50668,0.3201-1.0533,0.6667-1.64,1.04,0.31999,0.2934,0.57332,0.6001,0.76,0.92,0.15999,0.2934,0.26666,0.6134,0.32,0.96,0.08,0.32,0.0267,0.6534-0.16,1-0.53334,0.8534-1.1333,1.52-1.8,2-0.66667,0.48-1.28,0.8134-1.84,1-0.37334,0.1334-0.78667,0.1467-1.24,0.04-0.45334-0.1066-0.81334-0.32-1.08-0.64-0.29334-0.4266-0.37334-0.8666-0.24-1.32,0.16-0.4266,0.41333-0.84,0.76-1.24,0.34666-0.4266,0.74666-0.8266,1.2-1.2,0.45333-0.3733,0.85333-0.7066,1.2-1-0.24-0.2666-0.70667-0.5866-1.4-0.96-0.69334-0.3999-1.4133-0.8266-2.16-1.28-0.72-0.4799-1.3733-0.9866-1.96-1.52-0.58667-0.5333-0.90667-1.0666-0.96-1.6-0.10666-0.5866-0.02667-1.1466,0.24-1.68,0.24-0.5599,0.6-1.0399,1.08-1.44,0.50667-0.4266,1.08-0.7333,1.72-0.92,0.66666-0.2133,1.36-0.2666,2.08-0.16m-0.36,13.72c0.29333,0.1334,0.62666,0.1334,1,0,0.37333-0.1333,0.72-0.3333,1.04-0.6,0.34666-0.24,0.63999-0.5066,0.88-0.8,0.26666-0.32,0.43999-0.6,0.52-0.84,0.07999-0.2133-0.000007-0.44-0.24-0.68-0.21334-0.2666-0.44001-0.4799-0.68-0.64-0.29334,0.2134-0.62667,0.4934-1,0.84-0.37334,0.32-0.70667,0.6534-1,1-0.26667,0.3467-0.46667,0.68-0.6,1-0.13334,0.32-0.10667,0.56,0.08,0.72"
         id="path38" />
    </g>
    <path
       d="m102,35.697c0.57129-0.37792,1.166-0.72977,1.8073-0.97421,0.34826-0.09476,0.715-0.187,1.078-0.1542,0.37742,0.09476,0.55892,0.44876,0.7133,0.77517,0.24654,0.55224,0.32832,1.1456,0.37935,1.7423,0.0104,0.74428-0.25016,1.4621-0.75596,2.0141-0.13122,0.1432-0.28223,0.26693-0.42334,0.4004-1.7099,1.2841-3.7182,2.0919-5.7134,2.8167-2.5934,0.88249-5.2737,1.5186-7.9807,1.9378-0.66224,0.10255-1.3279,0.18194-1.9918,0.2729-4.2894,0.55011-8.607,0.84073-12.921,1.1179-5.0797,0.29237-10.164,0.49703-15.247,0.73405-5.9161,0.32107-11.839,0.42646-17.762,0.5132-5.2731,0.06072-10.547,0.0719-15.82,0.08443-2.4778-0.03048-4.9571,0.06619-7.4347,0.01-1.1635-0.02639-1.4953-0.06154-2.6157-0.1393-1.3998-0.11643-2.8111-0.29791-4.0992-0.88484-0.42585-0.20552-0.72133-0.49753-0.84933-0.95114-0.0497-0.25609-0.03143-0.51867-0.02438-0.77774-0.01664-0.33938,0.16903-0.5836,0.41783-0.7881,0.52973-0.41891,1.0694-0.69421,1.7184-0.74974,0,0-0.80191,0.59513-0.80191,0.59513-0.57387,0.06782-1.0062,0.3999,0.14495-0.29223,0.04442-0.02671-0.09023,0.05106-0.13535,0.07659-0.24161,0.17803-0.46907,0.3784-0.45152,0.70656-0.0062,0.25074-0.02312,0.50375,0.01133,0.75309,0.10014,0.42938,0.3837,0.69672,0.77479,0.89493,1.2478,0.597,2.6282,0.78426,3.993,0.91786,3.302,0.26992,6.6157,0.18493,9.9258,0.2118,5.2497,0.0106,10.499,0.01817,15.749-0.0337,5.932-0.06781,11.863-0.2094,17.788-0.53441,5.0969-0.24725,10.195-0.46911,15.29-0.76713,4.3239-0.29209,8.6516-0.58736,12.951-1.1467,0.66924-0.09609,1.3402-0.18095,2.0077-0.28826,2.7275-0.43844,5.43-1.0832,8.0373-1.9994,1.074-0.39934,1.1631-0.41352,2.1737-0.85851,0.3126-0.13765,0.61458-0.29932,0.93065-0.42879,0.0246-0.01007-0.0685,0.07791-0.0448,0.06591,0.52879-0.26775,0.64619-0.37787,1.1088-0.71143,0.13963-0.12764,0.28837-0.246,0.41891-0.38294,0.50189-0.52649,0.7784-1.215,0.77136-1.9407-0.0544-0.58382-0.13508-1.1632-0.37668-1.7038-0.14312-0.29391-0.31289-0.62461-0.66706-0.67878-0.35591-0.0055-0.71059,0.0701-1.0467,0.18382-0.41422,0.16625-0.8091,0.43321,0.31051-0.25495,0.0966-0.05935-0.1944,0.1166-0.29013,0.17726-0.0368,0.02331-0.0746,0.04485-0.11197,0.06727,0,0-0.93539,0.37199-0.93539,0.37199z"
       transform="translate(0,992.36218)"
       stroke-miterlimit="4"
       stroke-width="0"
       fill="url(#linearGradient3870)"
       id="path40" />
  </g>
</svg>
